<svg xmlns="http://www.w3.org/2000/svg" id="export" class="canvas" preserveAspectRatio="xMidYMid meet" style="" width="211" height="1177"><rect id="background" fill="#fff" pointer-events="all" width="211" height="1177"/><g id="origin" transform="translate(9.570793914794923, 9.570793914794923) scale(1)"><g id="clusters" class="clusters"/><g id="edge-paths" class="edge-paths" style="pointer-events: none;"><defs><marker id="arrowhead" viewBox="0 0 10 10" refX="9" refY="5" markerUnits="strokeWidth" markerWidth="8" markerHeight="6" orient="auto" style="fill: rgb(0, 0, 0);"><path d="M 0 0 L 10 5 L 0 10 L 4 5 z" style="stroke-width: 1px;"/></marker><marker id="arrowhead-select" viewBox="0 0 10 10" refX="9" refY="5" markerUnits="strokeWidth" markerWidth="8" markerHeight="6" orient="auto" style="fill: rgba(220, 0, 0, 0.9);"><path d="M 0 0 L 10 5 L 0 10 L 4 5 z" style="stroke-width: 1px;"/></marker><marker id="arrowhead-hover" viewBox="0 0 10 10" refX="9" refY="5" markerUnits="strokeWidth" markerWidth="8" markerHeight="6" orient="auto" style="fill: rgba(220, 0, 0, 0.9);"><path d="M 0 0 L 10 5 L 0 10 L 4 5 z" style="stroke-width: 1px;"/></marker></defs><path id="edge-input" class="edge-path" d="M60.552979469299316,21.140382431290778L56.7108162244161,23.058985271670945C52.868652979532875,24.97758811205111,45.18432648976644,28.814793792811443,41.34216324488322,34.3433966077603C37.5,39.871999422709145,37.5,47.09199937184652,37.5,54.31199932098389C37.5,61.531999270121254,37.5,68.75199921925862,37.5,78.75966588656108C37.5,88.76733255386353,37.5,101.56266593933105,37.5,116.3013326327006C37.5,131.03999932607016,37.5,147.7219993273417,37.5,161.56066592534384C37.5,175.39933252334595,37.5,186.3946657180786,37.5,197.38999891281128C37.5,208.38533210754395,37.5,219.3806653022766,37.5,230.37599849700928C37.5,241.37133169174194,37.5,252.3666648864746,37.5,263.3619980812073C37.5,274.35733127593994,37.5,285.3526644706726,37.5,299.19133106867474C37.5,313.0299976666768,37.5,329.7119976679484,37.5,346.39399766921997C37.5,363.0759976704915,37.5,379.7579976717631,37.5,393.5966642697652C37.5,407.43533086776733,37.5,418.4306640625,37.5,429.42599725723267C37.5,440.42133045196533,37.5,451.416663646698,37.5,462.41199684143066C37.5,473.40733003616333,37.5,484.402663230896,37.5,495.39799642562866C37.5,506.3933296203613,37.5,517.388662815094,37.5,531.2273294130961C37.5,545.0659960110983,37.5,561.7479960123698,37.5,578.4299960136414C37.5,595.111996014913,37.5,611.7939960161845,37.5,623.7449959913889C37.5,635.6959959665934,37.5,642.9159959157308,37.5,646.5259958902994L37.5,650.1359958648682" style="stroke: rgb(0, 0, 0); stroke-width: 1px; fill: none; marker-end: url(&quot;#arrowhead&quot;);"/><path id="edge-input" class="edge-path" d="M99.86122989654541,21.140382431290778L103.70339314142863,23.058985271670945C107.54555638631184,24.97758811205111,115.22988287607829,28.814793792811443,119.0720461209615,34.3433966077603C122.91420936584473,39.871999422709145,122.91420936584473,47.09199937184652,122.91420936584473,54.31199932098389C122.91420936584473,61.531999270121254,122.91420936584473,68.75199921925862,122.91420936584473,74.02866586049397C122.91420936584473,79.30533250172932,122.91420936584473,82.63866583506267,122.91420936584473,84.30533250172932L122.91420936584473,85.971999168396" style="stroke: rgb(0, 0, 0); stroke-width: 1px; fill: none; marker-end: url(&quot;#arrowhead&quot;);"/><path id="edge-val_0" class="edge-path" d="M37.5,672.7879953384399L37.5,676.3979953130087C37.5,680.0079952875773,37.5,687.2279952367147,37.5,694.447995185852C37.5,701.6679951349894,37.5,708.8879950841268,37.5,712.4979950586954L37.5,716.1079950332642" style="stroke: rgb(0, 0, 0); stroke-width: 1px; fill: none; marker-end: url(&quot;#arrowhead&quot;);"/><path id="edge-getitem" class="edge-path" d="M122.91420936584473,142.74399948120117L122.91420936584473,146.35399945576987C122.91420936584473,149.96399943033853,122.91420936584473,157.18399937947592,122.91420936584473,164.40399932861328C122.91420936584473,171.62399927775064,122.91420936584473,178.84399922688803,122.91420936584473,182.4539992014567L122.91420936584473,186.0639991760254" style="stroke: rgb(0, 0, 0); stroke-width: 1px; fill: none; marker-end: url(&quot;#arrowhead&quot;);"/><path id="edge-relu" class="edge-path" d="M122.91420936584473,208.71599864959717L122.91420936584473,212.32599862416586C122.91420936584473,215.93599859873453,122.91420936584473,223.15599854787192,122.91420936584473,230.37599849700928C122.91420936584473,237.59599844614664,122.91420936584473,244.81599839528403,122.91420936584473,248.4259983698527L122.91420936584473,252.0359983444214" style="stroke: rgb(0, 0, 0); stroke-width: 1px; fill: none; marker-end: url(&quot;#arrowhead&quot;);"/><path id="edge-max_pool2d" class="edge-path" d="M122.91420936584473,274.68799781799316L122.91420936584473,278.29799779256183C122.91420936584473,281.90799776713055,122.91420936584473,289.1279977162679,122.91420936584473,296.3479976654053C122.91420936584473,303.56799761454266,122.91420936584473,310.78799756368,122.91420936584473,314.3979975382487L122.91420936584473,318.0079975128174" style="stroke: rgb(0, 0, 0); stroke-width: 1px; fill: none; marker-end: url(&quot;#arrowhead&quot;);"/><path id="edge-getitem_3" class="edge-path" d="M122.91420936584473,374.77999782562256L122.91420936584473,378.3899978001912C122.91420936584473,381.99999777475995,122.91420936584473,389.2199977238973,122.91420936584473,396.43999767303467C122.91420936584473,403.65999762217206,122.91420936584473,410.8799975713094,122.91420936584473,414.4899975458781L122.91420936584473,418.0999975204468" style="stroke: rgb(0, 0, 0); stroke-width: 1px; fill: none; marker-end: url(&quot;#arrowhead&quot;);"/><path id="edge-relu_1" class="edge-path" d="M122.91420936584473,440.75199699401855L122.91420936584473,444.3619969685872C122.91420936584473,447.97199694315594,122.91420936584473,455.1919968922933,122.91420936584473,462.41199684143066C122.91420936584473,469.63199679056805,122.91420936584473,476.8519967397054,122.91420936584473,480.4619967142741L122.91420936584473,484.0719966888428" style="stroke: rgb(0, 0, 0); stroke-width: 1px; fill: none; marker-end: url(&quot;#arrowhead&quot;);"/><path id="edge-max_pool2d_1" class="edge-path" d="M122.91420936584473,506.72399616241455L122.91420936584473,510.3339961369832C122.91420936584473,513.9439961115519,122.91420936584473,521.1639960606893,122.91420936584473,528.3839960098267C122.91420936584473,535.603995958964,122.91420936584473,542.8239959081014,122.91420936584473,546.43399588267L122.91420936584473,550.0439958572388" style="stroke: rgb(0, 0, 0); stroke-width: 1px; fill: none; marker-end: url(&quot;#arrowhead&quot;);"/><path id="edge-getitem_6" class="edge-path" d="M122.91420936584473,606.815996170044L122.91420936584473,610.4259961446127C122.91420936584473,614.0359961191813,122.91420936584473,621.2559960683187,122.91420936584473,628.475996017456C122.91420936584473,635.6959959665934,122.91420936584473,642.9159959157308,122.91420936584473,646.5259958902994L122.91420936584473,650.1359958648682" style="stroke: rgb(0, 0, 0); stroke-width: 1px; fill: none; marker-end: url(&quot;#arrowhead&quot;);"/><path id="edge-relu_2" class="edge-path" d="M122.91420936584473,672.7879953384399L122.91420936584473,676.3979953130087C122.91420936584473,680.0079952875773,122.91420936584473,687.2279952367147,122.91420936584473,696.1196618874868C122.91420936584473,705.0113285382589,122.91420936584473,715.5746618906657,122.91420936584473,720.8563285668691L122.91420936584473,726.1379952430725" style="stroke: rgb(0, 0, 0); stroke-width: 1px; fill: none; marker-end: url(&quot;#arrowhead&quot;);"/><path id="edge-max_pool2d_2" class="edge-path" d="M122.91420936584473,748.7899947166443L122.91420936584473,754.0716613928477C122.91420936584473,759.3533280690511,122.91420936584473,769.9166614214579,118.24032805975544,778.80832807223C113.56644675366617,787.6999947230021,104.2186841414876,794.9199946721395,99.5448028353983,798.5299946467081L94.87092152930903,802.1399946212769" style="stroke: rgb(0, 0, 0); stroke-width: 1px; fill: none; marker-end: url(&quot;#arrowhead&quot;);"/><path id="edge-val_21" class="edge-path" d="M37.5,758.8199949264526L37.5,762.4299949010214C37.5,766.03999487559,37.5,773.2599948247274,42.17388130608928,780.4799947738647C46.84776261217856,787.6999947230021,56.195525224357134,794.9199946721395,60.86940653044641,798.5299946467081L65.5432878365357,802.1399946212769" style="stroke: rgb(0, 0, 0); stroke-width: 1px; fill: none; marker-end: url(&quot;#arrowhead&quot;);"/><path id="edge-view" class="edge-path" d="M80.20710468292236,824.7919940948486L80.20710468292236,828.4019940694174C80.20710468292236,832.011994043986,80.20710468292236,839.2319939931234,80.20710468292236,846.4519939422607C80.20710468292236,853.6719938913981,80.20710468292236,860.8919938405355,80.20710468292236,864.5019938151041L80.20710468292236,868.1119937896729" style="stroke: rgb(0, 0, 0); stroke-width: 1px; fill: none; marker-end: url(&quot;#arrowhead&quot;);"/><path id="edge-linear" class="edge-path" d="M80.20710468292236,924.883994102478L80.20710468292236,928.4939940770468C80.20710468292236,932.1039940516154,80.20710468292236,939.3239940007528,80.20710468292236,946.5439939498901C80.20710468292236,953.7639938990275,80.20710468292236,960.9839938481649,80.20710468292236,964.5939938227335L80.20710468292236,968.2039937973022" style="stroke: rgb(0, 0, 0); stroke-width: 1px; fill: none; marker-end: url(&quot;#arrowhead&quot;);"/><path id="edge-relu_3" class="edge-path" d="M80.20710468292236,990.855993270874L80.20710468292236,994.4659932454427C80.20710468292236,998.0759932200114,80.20710468292236,1005.2959931691488,80.20710468292236,1012.5159931182861C80.20710468292236,1019.7359930674235,80.20710468292236,1026.9559930165608,80.20710468292236,1030.5659929911296L80.20710468292236,1034.1759929656982" style="stroke: rgb(0, 0, 0); stroke-width: 1px; fill: none; marker-end: url(&quot;#arrowhead&quot;);"/><path id="edge-output" class="edge-path" d="M80.20710468292236,1090.9479932785034L80.20710468292236,1094.557993253072C80.20710468292236,1098.1679932276409,80.20710468292236,1105.387993176778,80.20710468292236,1112.6079931259155C80.20710468292236,1119.827993075053,80.20710468292236,1127.0479930241902,80.20710468292236,1130.657992998759L80.20710468292236,1134.2679929733276" style="stroke: rgb(0, 0, 0); stroke-width: 1px; fill: none; marker-end: url(&quot;#arrowhead&quot;);"/></g><g id="edge-labels" class="edge-labels"><text style="opacity: 1; font-family: -apple-system, BlinkMacSystemFont, &quot;Segoe WPC&quot;, &quot;Segoe UI&quot;, &quot;Ubuntu&quot;, &quot;Droid Sans&quot;, sans-serif, &quot;PingFang SC&quot;; font-size: 10px;" class="edge-label" id="edge-label-edge-input" transform="translate(42.5,289.68799781799316)"><tspan xml:space="preserve" dy="1em" x="1">s77×1×28×28</tspan></text><text style="opacity: 1; font-family: -apple-system, BlinkMacSystemFont, &quot;Segoe WPC&quot;, &quot;Segoe UI&quot;, &quot;Ubuntu&quot;, &quot;Droid Sans&quot;, sans-serif, &quot;PingFang SC&quot;; font-size: 10px;" class="edge-label" id="edge-label-edge-input" transform="translate(127.91420936584473,47.65199947357178)"><tspan xml:space="preserve" dy="1em" x="1">s77×1×28×28</tspan></text><text style="opacity: 1; font-family: -apple-system, BlinkMacSystemFont, &quot;Segoe WPC&quot;, &quot;Segoe UI&quot;, &quot;Ubuntu&quot;, &quot;Droid Sans&quot;, sans-serif, &quot;PingFang SC&quot;; font-size: 10px;" class="edge-label" id="edge-label-edge-val_0" transform="translate(42.5,687.7879953384399)"><tspan xml:space="preserve" dy="1em" x="1">1</tspan></text><text style="opacity: 1; font-family: -apple-system, BlinkMacSystemFont, &quot;Segoe WPC&quot;, &quot;Segoe UI&quot;, &quot;Ubuntu&quot;, &quot;Droid Sans&quot;, sans-serif, &quot;PingFang SC&quot;; font-size: 10px;" class="edge-label" id="edge-label-edge-getitem" transform="translate(127.91420936584473,157.74399948120117)"><tspan xml:space="preserve" dy="1em" x="1">1×25×28×28</tspan></text><text style="opacity: 1; font-family: -apple-system, BlinkMacSystemFont, &quot;Segoe WPC&quot;, &quot;Segoe UI&quot;, &quot;Ubuntu&quot;, &quot;Droid Sans&quot;, sans-serif, &quot;PingFang SC&quot;; font-size: 10px;" class="edge-label" id="edge-label-edge-relu" transform="translate(127.91420936584473,223.71599864959717)"><tspan xml:space="preserve" dy="1em" x="1">1×25×28×28</tspan></text><text style="opacity: 1; font-family: -apple-system, BlinkMacSystemFont, &quot;Segoe WPC&quot;, &quot;Segoe UI&quot;, &quot;Ubuntu&quot;, &quot;Droid Sans&quot;, sans-serif, &quot;PingFang SC&quot;; font-size: 10px;" class="edge-label" id="edge-label-edge-max_pool2d" transform="translate(127.91420936584473,289.68799781799316)"><tspan xml:space="preserve" dy="1em" x="1">1×25×14×14</tspan></text><text style="opacity: 1; font-family: -apple-system, BlinkMacSystemFont, &quot;Segoe WPC&quot;, &quot;Segoe UI&quot;, &quot;Ubuntu&quot;, &quot;Droid Sans&quot;, sans-serif, &quot;PingFang SC&quot;; font-size: 10px;" class="edge-label" id="edge-label-edge-getitem_3" transform="translate(127.91420936584473,389.77999782562256)"><tspan xml:space="preserve" dy="1em" x="1">1×50×14×14</tspan></text><text style="opacity: 1; font-family: -apple-system, BlinkMacSystemFont, &quot;Segoe WPC&quot;, &quot;Segoe UI&quot;, &quot;Ubuntu&quot;, &quot;Droid Sans&quot;, sans-serif, &quot;PingFang SC&quot;; font-size: 10px;" class="edge-label" id="edge-label-edge-relu_1" transform="translate(127.91420936584473,455.75199699401855)"><tspan xml:space="preserve" dy="1em" x="1">1×50×14×14</tspan></text><text style="opacity: 1; font-family: -apple-system, BlinkMacSystemFont, &quot;Segoe WPC&quot;, &quot;Segoe UI&quot;, &quot;Ubuntu&quot;, &quot;Droid Sans&quot;, sans-serif, &quot;PingFang SC&quot;; font-size: 10px;" class="edge-label" id="edge-label-edge-max_pool2d_1" transform="translate(127.91420936584473,521.7239961624146)"><tspan xml:space="preserve" dy="1em" x="1">1×50×7×7</tspan></text><text style="opacity: 1; font-family: -apple-system, BlinkMacSystemFont, &quot;Segoe WPC&quot;, &quot;Segoe UI&quot;, &quot;Ubuntu&quot;, &quot;Droid Sans&quot;, sans-serif, &quot;PingFang SC&quot;; font-size: 10px;" class="edge-label" id="edge-label-edge-getitem_6" transform="translate(127.91420936584473,621.815996170044)"><tspan xml:space="preserve" dy="1em" x="1">1×75×7×7</tspan></text><text style="opacity: 1; font-family: -apple-system, BlinkMacSystemFont, &quot;Segoe WPC&quot;, &quot;Segoe UI&quot;, &quot;Ubuntu&quot;, &quot;Droid Sans&quot;, sans-serif, &quot;PingFang SC&quot;; font-size: 10px;" class="edge-label" id="edge-label-edge-relu_2" transform="translate(127.91420936584473,687.7879953384399)"><tspan xml:space="preserve" dy="1em" x="1">1×75×7×7</tspan></text><text style="opacity: 1; font-family: -apple-system, BlinkMacSystemFont, &quot;Segoe WPC&quot;, &quot;Segoe UI&quot;, &quot;Ubuntu&quot;, &quot;Droid Sans&quot;, sans-serif, &quot;PingFang SC&quot;; font-size: 10px;" class="edge-label" id="edge-label-edge-max_pool2d_2" transform="translate(127.91420936584473,773.8199949264526)"><tspan xml:space="preserve" dy="1em" x="1">1×75×3×3</tspan></text><text style="opacity: 1; font-family: -apple-system, BlinkMacSystemFont, &quot;Segoe WPC&quot;, &quot;Segoe UI&quot;, &quot;Ubuntu&quot;, &quot;Droid Sans&quot;, sans-serif, &quot;PingFang SC&quot;; font-size: 10px;" class="edge-label" id="edge-label-edge-val_21" transform="translate(42.5,773.8199949264526)"><tspan xml:space="preserve" dy="1em" x="1">2</tspan></text><text style="opacity: 1; font-family: -apple-system, BlinkMacSystemFont, &quot;Segoe WPC&quot;, &quot;Segoe UI&quot;, &quot;Ubuntu&quot;, &quot;Droid Sans&quot;, sans-serif, &quot;PingFang SC&quot;; font-size: 10px;" class="edge-label" id="edge-label-edge-view" transform="translate(85.20710468292236,839.7919940948486)"><tspan xml:space="preserve" dy="1em" x="1">1×675</tspan></text><text style="opacity: 1; font-family: -apple-system, BlinkMacSystemFont, &quot;Segoe WPC&quot;, &quot;Segoe UI&quot;, &quot;Ubuntu&quot;, &quot;Droid Sans&quot;, sans-serif, &quot;PingFang SC&quot;; font-size: 10px;" class="edge-label" id="edge-label-edge-linear" transform="translate(85.20710468292236,939.883994102478)"><tspan xml:space="preserve" dy="1em" x="1">1×512</tspan></text><text style="opacity: 1; font-family: -apple-system, BlinkMacSystemFont, &quot;Segoe WPC&quot;, &quot;Segoe UI&quot;, &quot;Ubuntu&quot;, &quot;Droid Sans&quot;, sans-serif, &quot;PingFang SC&quot;; font-size: 10px;" class="edge-label" id="edge-label-edge-relu_3" transform="translate(85.20710468292236,1005.855993270874)"><tspan xml:space="preserve" dy="1em" x="1">1×512</tspan></text><text style="opacity: 1; font-family: -apple-system, BlinkMacSystemFont, &quot;Segoe WPC&quot;, &quot;Segoe UI&quot;, &quot;Ubuntu&quot;, &quot;Droid Sans&quot;, sans-serif, &quot;PingFang SC&quot;; font-size: 10px;" class="edge-label" id="edge-label-edge-output" transform="translate(85.20710468292236,1105.9479932785034)"><tspan xml:space="preserve" dy="1em" x="1">1×24</tspan></text></g><g id="nodes" class="nodes"><g id="input-name-input" class="node graph-input" style="" transform="translate(60.552979469299316,0)"><g class="node-item graph-item-input" transform="translate(0,0)"><path d="M5,0h29.308250427246094a5,5 0 0 1 5,5v12.651999473571777a5,5 0 0 1 -5,5h-29.308250427246094a5,5 0 0 1 -5,-5v-12.651999473571777a5,5 0 0 1 5,-5z" style="stroke: rgb(0, 0, 0); fill: rgb(238, 238, 238); stroke-width: 0px;"/><text x="6" y="15.880000114440918" style="font-family: -apple-system, BlinkMacSystemFont, &quot;Segoe WPC&quot;, &quot;Segoe UI&quot;, &quot;Ubuntu&quot;, &quot;Droid Sans&quot;, sans-serif, &quot;PingFang SC&quot;; font-size: 11px; text-rendering: geometricprecision; user-select: none;">input</text><title>float32[s77,1,28,28]</title></g><path class="node node-border" d="M5,0h29.308250427246094a5,5 0 0 1 5,5v12.651999473571777a5,5 0 0 1 -5,5h-29.308250427246094a5,5 0 0 1 -5,-5v-12.651999473571777a5,5 0 0 1 5,-5z" style="stroke: rgb(51, 51, 51); fill: none; stroke-width: 1px;"/></g><g id="node-name-node_Shape_0" class="node graph-node" style="" transform="translate(15.557875633239746,650.1359958648682)"><g class="node-item node-item-type" transform="translate(0,0)"><path d="M5,0h33.88424873352051a5,5 0 0 1 5,5v12.651999473571777a5,5 0 0 1 -5,5h-33.88424873352051a5,5 0 0 1 -5,-5v-12.651999473571777a5,5 0 0 1 5,-5z" style="stroke: rgb(0, 0, 0); fill: rgb(0, 0, 0); stroke-width: 0px;"/><text x="6" y="15.880000114440918" style="font-family: -apple-system, BlinkMacSystemFont, &quot;Segoe WPC&quot;, &quot;Segoe UI&quot;, &quot;Ubuntu&quot;, &quot;Droid Sans&quot;, sans-serif, &quot;PingFang SC&quot;; font-size: 11px; text-rendering: geometricprecision; user-select: none; fill: rgb(255, 255, 255);">Shape</text><title>node_Shape_0</title></g><path class="node node-border" d="M5,0h33.88424873352051a5,5 0 0 1 5,5v12.651999473571777a5,5 0 0 1 -5,5h-33.88424873352051a5,5 0 0 1 -5,-5v-12.651999473571777a5,5 0 0 1 5,-5z" style="stroke: rgb(51, 51, 51); fill: none; stroke-width: 1px;"/></g><g id="node-name-node_Conv_19" class="node graph-node" style="" transform="translate(82.0275821685791,85.971999168396)"><g class="node-item node-item-type node-item-type-layer" transform="translate(0,0)"><path d="M5,0h71.77325439453125a5,5 0 0 1 5,5v17.651999473571777a0,0 0 0 1 0,0h-81.77325439453125a0,0 0 0 1 0,0v-17.651999473571777a5,5 0 0 1 5,-5z" style="stroke: rgb(0, 0, 0); fill: rgb(51, 85, 136); stroke-width: 0px;"/><text x="6" y="15.880000114440918" style="font-family: -apple-system, BlinkMacSystemFont, &quot;Segoe WPC&quot;, &quot;Segoe UI&quot;, &quot;Ubuntu&quot;, &quot;Droid Sans&quot;, sans-serif, &quot;PingFang SC&quot;; font-size: 11px; text-rendering: geometricprecision; user-select: none; fill: rgb(255, 255, 255);">Conv</text><title>node_Conv_19</title></g><g class="node-argument-list" transform="translate(0,22.651999473571777)"><path d="M0,0h81.77325439453125a0,0 0 0 1 0,0v29.1200008392334a5,5 0 0 1 -5,5h-71.77325439453125a5,5 0 0 1 -5,-5v-29.1200008392334a0,0 0 0 1 0,0z" style="stroke: rgb(0, 0, 0); fill: rgb(255, 255, 255); stroke-width: 0px;"/><g class="node-argument"><rect rx="3" ry="3" x="3" y="3" width="75.77325439453125" height="14.0600004196167" style="fill: transparent;"/><text xml:space="preserve" x="6" y="13.720000267028809" style="font-family: -apple-system, BlinkMacSystemFont, &quot;Segoe WPC&quot;, &quot;Segoe UI&quot;, &quot;Ubuntu&quot;, &quot;Droid Sans&quot;, sans-serif, &quot;PingFang SC&quot;; font-size: 9px; font-weight: normal; text-rendering: geometricprecision; user-select: none;"><title>float32[25,1,3,3]</title><tspan style="font-weight: bold;">W</tspan><tspan>〈25×1×3×3〉</tspan></text></g><g class="node-argument"><rect rx="3" ry="3" x="3" y="17.0600004196167" width="75.77325439453125" height="14.0600004196167" style="fill: transparent;"/><text xml:space="preserve" x="6" y="27.780000686645508" style="font-family: -apple-system, BlinkMacSystemFont, &quot;Segoe WPC&quot;, &quot;Segoe UI&quot;, &quot;Ubuntu&quot;, &quot;Droid Sans&quot;, sans-serif, &quot;PingFang SC&quot;; font-size: 9px; font-weight: normal; text-rendering: geometricprecision; user-select: none;"><title>float32[25]</title><tspan style="font-weight: bold;">B</tspan><tspan>〈25〉</tspan></text></g><line class="node" x1="0" x2="81.77325439453125" y1="0" y2="0" style="stroke: rgb(51, 51, 51); fill: none; stroke-width: 1px;"/></g><path class="node node-border" d="M5,0h71.77325439453125a5,5 0 0 1 5,5v46.772000312805176a5,5 0 0 1 -5,5h-71.77325439453125a5,5 0 0 1 -5,-5v-46.772000312805176a5,5 0 0 1 5,-5z" style="stroke: rgb(51, 51, 51); fill: none; stroke-width: 1px;"/></g><g id="node-name-node_relu" class="node graph-node" style="" transform="translate(105.46512603759766,186.0639991760254)"><g class="node-item node-item-type node-item-type-activation" transform="translate(0,0)"><path d="M5,0h24.89816665649414a5,5 0 0 1 5,5v12.651999473571777a5,5 0 0 1 -5,5h-24.89816665649414a5,5 0 0 1 -5,-5v-12.651999473571777a5,5 0 0 1 5,-5z" style="stroke: rgb(0, 0, 0); fill: rgb(112, 41, 33); stroke-width: 0px;"/><text x="6" y="15.880000114440918" style="font-family: -apple-system, BlinkMacSystemFont, &quot;Segoe WPC&quot;, &quot;Segoe UI&quot;, &quot;Ubuntu&quot;, &quot;Droid Sans&quot;, sans-serif, &quot;PingFang SC&quot;; font-size: 11px; text-rendering: geometricprecision; user-select: none; fill: rgb(255, 255, 255);">Relu</text><title>node_relu</title></g><path class="node node-border" d="M5,0h24.89816665649414a5,5 0 0 1 5,5v12.651999473571777a5,5 0 0 1 -5,5h-24.89816665649414a5,5 0 0 1 -5,-5v-12.651999473571777a5,5 0 0 1 5,-5z" style="stroke: rgb(51, 51, 51); fill: none; stroke-width: 1px;"/></g><g id="node-name-node_max_pool2d" class="node graph-node" style="" transform="translate(95,252.0359983444214)"><g class="node-item node-item-type node-item-type-pool" transform="translate(0,0)"><path d="M5,0h45.82841873168945a5,5 0 0 1 5,5v12.651999473571777a5,5 0 0 1 -5,5h-45.82841873168945a5,5 0 0 1 -5,-5v-12.651999473571777a5,5 0 0 1 5,-5z" style="stroke: rgb(0, 0, 0); fill: rgb(51, 85, 51); stroke-width: 0px;"/><text x="6" y="15.880000114440918" style="font-family: -apple-system, BlinkMacSystemFont, &quot;Segoe WPC&quot;, &quot;Segoe UI&quot;, &quot;Ubuntu&quot;, &quot;Droid Sans&quot;, sans-serif, &quot;PingFang SC&quot;; font-size: 11px; text-rendering: geometricprecision; user-select: none; fill: rgb(255, 255, 255);">MaxPool</text><title>node_max_pool2d</title></g><path class="node node-border" d="M5,0h45.82841873168945a5,5 0 0 1 5,5v12.651999473571777a5,5 0 0 1 -5,5h-45.82841873168945a5,5 0 0 1 -5,-5v-12.651999473571777a5,5 0 0 1 5,-5z" style="stroke: rgb(51, 51, 51); fill: none; stroke-width: 1px;"/></g><g id="node-name-node_Conv_20" class="node graph-node" style="" transform="translate(79.60170936584473,318.0079975128174)"><g class="node-item node-item-type node-item-type-layer" transform="translate(0,0)"><path d="M5,0h76.625a5,5 0 0 1 5,5v17.651999473571777a0,0 0 0 1 0,0h-86.625a0,0 0 0 1 0,0v-17.651999473571777a5,5 0 0 1 5,-5z" style="stroke: rgb(0, 0, 0); fill: rgb(51, 85, 136); stroke-width: 0px;"/><text x="6" y="15.880000114440918" style="font-family: -apple-system, BlinkMacSystemFont, &quot;Segoe WPC&quot;, &quot;Segoe UI&quot;, &quot;Ubuntu&quot;, &quot;Droid Sans&quot;, sans-serif, &quot;PingFang SC&quot;; font-size: 11px; text-rendering: geometricprecision; user-select: none; fill: rgb(255, 255, 255);">Conv</text><title>node_Conv_20</title></g><g class="node-argument-list" transform="translate(0,22.651999473571777)"><path d="M0,0h86.625a0,0 0 0 1 0,0v29.1200008392334a5,5 0 0 1 -5,5h-76.625a5,5 0 0 1 -5,-5v-29.1200008392334a0,0 0 0 1 0,0z" style="stroke: rgb(0, 0, 0); fill: rgb(255, 255, 255); stroke-width: 0px;"/><g class="node-argument"><rect rx="3" ry="3" x="3" y="3" width="80.625" height="14.0600004196167" style="fill: transparent;"/><text xml:space="preserve" x="6" y="13.720000267028809" style="font-family: -apple-system, BlinkMacSystemFont, &quot;Segoe WPC&quot;, &quot;Segoe UI&quot;, &quot;Ubuntu&quot;, &quot;Droid Sans&quot;, sans-serif, &quot;PingFang SC&quot;; font-size: 9px; font-weight: normal; text-rendering: geometricprecision; user-select: none;"><title>float32[50,25,3,3]</title><tspan style="font-weight: bold;">W</tspan><tspan>〈50×25×3×3〉</tspan></text></g><g class="node-argument"><rect rx="3" ry="3" x="3" y="17.0600004196167" width="80.625" height="14.0600004196167" style="fill: transparent;"/><text xml:space="preserve" x="6" y="27.780000686645508" style="font-family: -apple-system, BlinkMacSystemFont, &quot;Segoe WPC&quot;, &quot;Segoe UI&quot;, &quot;Ubuntu&quot;, &quot;Droid Sans&quot;, sans-serif, &quot;PingFang SC&quot;; font-size: 9px; font-weight: normal; text-rendering: geometricprecision; user-select: none;"><title>float32[50]</title><tspan style="font-weight: bold;">B</tspan><tspan>〈50〉</tspan></text></g><line class="node" x1="0" x2="86.625" y1="0" y2="0" style="stroke: rgb(51, 51, 51); fill: none; stroke-width: 1px;"/></g><path class="node node-border" d="M5,0h76.625a5,5 0 0 1 5,5v46.772000312805176a5,5 0 0 1 -5,5h-76.625a5,5 0 0 1 -5,-5v-46.772000312805176a5,5 0 0 1 5,-5z" style="stroke: rgb(51, 51, 51); fill: none; stroke-width: 1px;"/></g><g id="node-name-node_relu_1" class="node graph-node" style="" transform="translate(105.46512603759766,418.0999975204468)"><g class="node-item node-item-type node-item-type-activation" transform="translate(0,0)"><path d="M5,0h24.89816665649414a5,5 0 0 1 5,5v12.651999473571777a5,5 0 0 1 -5,5h-24.89816665649414a5,5 0 0 1 -5,-5v-12.651999473571777a5,5 0 0 1 5,-5z" style="stroke: rgb(0, 0, 0); fill: rgb(112, 41, 33); stroke-width: 0px;"/><text x="6" y="15.880000114440918" style="font-family: -apple-system, BlinkMacSystemFont, &quot;Segoe WPC&quot;, &quot;Segoe UI&quot;, &quot;Ubuntu&quot;, &quot;Droid Sans&quot;, sans-serif, &quot;PingFang SC&quot;; font-size: 11px; text-rendering: geometricprecision; user-select: none; fill: rgb(255, 255, 255);">Relu</text><title>node_relu_1</title></g><path class="node node-border" d="M5,0h24.89816665649414a5,5 0 0 1 5,5v12.651999473571777a5,5 0 0 1 -5,5h-24.89816665649414a5,5 0 0 1 -5,-5v-12.651999473571777a5,5 0 0 1 5,-5z" style="stroke: rgb(51, 51, 51); fill: none; stroke-width: 1px;"/></g><g id="node-name-node_max_pool2d_1" class="node graph-node" style="" transform="translate(95,484.0719966888428)"><g class="node-item node-item-type node-item-type-pool" transform="translate(0,0)"><path d="M5,0h45.82841873168945a5,5 0 0 1 5,5v12.651999473571777a5,5 0 0 1 -5,5h-45.82841873168945a5,5 0 0 1 -5,-5v-12.651999473571777a5,5 0 0 1 5,-5z" style="stroke: rgb(0, 0, 0); fill: rgb(51, 85, 51); stroke-width: 0px;"/><text x="6" y="15.880000114440918" style="font-family: -apple-system, BlinkMacSystemFont, &quot;Segoe WPC&quot;, &quot;Segoe UI&quot;, &quot;Ubuntu&quot;, &quot;Droid Sans&quot;, sans-serif, &quot;PingFang SC&quot;; font-size: 11px; text-rendering: geometricprecision; user-select: none; fill: rgb(255, 255, 255);">MaxPool</text><title>node_max_pool2d_1</title></g><path class="node node-border" d="M5,0h45.82841873168945a5,5 0 0 1 5,5v12.651999473571777a5,5 0 0 1 -5,5h-45.82841873168945a5,5 0 0 1 -5,-5v-12.651999473571777a5,5 0 0 1 5,-5z" style="stroke: rgb(51, 51, 51); fill: none; stroke-width: 1px;"/></g><g id="node-name-node_Conv_21" class="node graph-node" style="" transform="translate(79.60170936584473,550.0439958572388)"><g class="node-item node-item-type node-item-type-layer" transform="translate(0,0)"><path d="M5,0h76.625a5,5 0 0 1 5,5v17.651999473571777a0,0 0 0 1 0,0h-86.625a0,0 0 0 1 0,0v-17.651999473571777a5,5 0 0 1 5,-5z" style="stroke: rgb(0, 0, 0); fill: rgb(51, 85, 136); stroke-width: 0px;"/><text x="6" y="15.880000114440918" style="font-family: -apple-system, BlinkMacSystemFont, &quot;Segoe WPC&quot;, &quot;Segoe UI&quot;, &quot;Ubuntu&quot;, &quot;Droid Sans&quot;, sans-serif, &quot;PingFang SC&quot;; font-size: 11px; text-rendering: geometricprecision; user-select: none; fill: rgb(255, 255, 255);">Conv</text><title>node_Conv_21</title></g><g class="node-argument-list" transform="translate(0,22.651999473571777)"><path d="M0,0h86.625a0,0 0 0 1 0,0v29.1200008392334a5,5 0 0 1 -5,5h-76.625a5,5 0 0 1 -5,-5v-29.1200008392334a0,0 0 0 1 0,0z" style="stroke: rgb(0, 0, 0); fill: rgb(255, 255, 255); stroke-width: 0px;"/><g class="node-argument"><rect rx="3" ry="3" x="3" y="3" width="80.625" height="14.0600004196167" style="fill: transparent;"/><text xml:space="preserve" x="6" y="13.720000267028809" style="font-family: -apple-system, BlinkMacSystemFont, &quot;Segoe WPC&quot;, &quot;Segoe UI&quot;, &quot;Ubuntu&quot;, &quot;Droid Sans&quot;, sans-serif, &quot;PingFang SC&quot;; font-size: 9px; font-weight: normal; text-rendering: geometricprecision; user-select: none;"><title>float32[75,50,3,3]</title><tspan style="font-weight: bold;">W</tspan><tspan>〈75×50×3×3〉</tspan></text></g><g class="node-argument"><rect rx="3" ry="3" x="3" y="17.0600004196167" width="80.625" height="14.0600004196167" style="fill: transparent;"/><text xml:space="preserve" x="6" y="27.780000686645508" style="font-family: -apple-system, BlinkMacSystemFont, &quot;Segoe WPC&quot;, &quot;Segoe UI&quot;, &quot;Ubuntu&quot;, &quot;Droid Sans&quot;, sans-serif, &quot;PingFang SC&quot;; font-size: 9px; font-weight: normal; text-rendering: geometricprecision; user-select: none;"><title>float32[75]</title><tspan style="font-weight: bold;">B</tspan><tspan>〈75〉</tspan></text></g><line class="node" x1="0" x2="86.625" y1="0" y2="0" style="stroke: rgb(51, 51, 51); fill: none; stroke-width: 1px;"/></g><path class="node node-border" d="M5,0h76.625a5,5 0 0 1 5,5v46.772000312805176a5,5 0 0 1 -5,5h-76.625a5,5 0 0 1 -5,-5v-46.772000312805176a5,5 0 0 1 5,-5z" style="stroke: rgb(51, 51, 51); fill: none; stroke-width: 1px;"/></g><g id="node-name-node_relu_2" class="node graph-node" style="" transform="translate(105.46512603759766,650.1359958648682)"><g class="node-item node-item-type node-item-type-activation" transform="translate(0,0)"><path d="M5,0h24.89816665649414a5,5 0 0 1 5,5v12.651999473571777a5,5 0 0 1 -5,5h-24.89816665649414a5,5 0 0 1 -5,-5v-12.651999473571777a5,5 0 0 1 5,-5z" style="stroke: rgb(0, 0, 0); fill: rgb(112, 41, 33); stroke-width: 0px;"/><text x="6" y="15.880000114440918" style="font-family: -apple-system, BlinkMacSystemFont, &quot;Segoe WPC&quot;, &quot;Segoe UI&quot;, &quot;Ubuntu&quot;, &quot;Droid Sans&quot;, sans-serif, &quot;PingFang SC&quot;; font-size: 11px; text-rendering: geometricprecision; user-select: none; fill: rgb(255, 255, 255);">Relu</text><title>node_relu_2</title></g><path class="node node-border" d="M5,0h24.89816665649414a5,5 0 0 1 5,5v12.651999473571777a5,5 0 0 1 -5,5h-24.89816665649414a5,5 0 0 1 -5,-5v-12.651999473571777a5,5 0 0 1 5,-5z" style="stroke: rgb(51, 51, 51); fill: none; stroke-width: 1px;"/></g><g id="node-name-node_max_pool2d_2" class="node graph-node" style="" transform="translate(95,726.1379952430725)"><g class="node-item node-item-type node-item-type-pool" transform="translate(0,0)"><path d="M5,0h45.82841873168945a5,5 0 0 1 5,5v12.651999473571777a5,5 0 0 1 -5,5h-45.82841873168945a5,5 0 0 1 -5,-5v-12.651999473571777a5,5 0 0 1 5,-5z" style="stroke: rgb(0, 0, 0); fill: rgb(51, 85, 51); stroke-width: 0px;"/><text x="6" y="15.880000114440918" style="font-family: -apple-system, BlinkMacSystemFont, &quot;Segoe WPC&quot;, &quot;Segoe UI&quot;, &quot;Ubuntu&quot;, &quot;Droid Sans&quot;, sans-serif, &quot;PingFang SC&quot;; font-size: 11px; text-rendering: geometricprecision; user-select: none; fill: rgb(255, 255, 255);">MaxPool</text><title>node_max_pool2d_2</title></g><path class="node node-border" d="M5,0h45.82841873168945a5,5 0 0 1 5,5v12.651999473571777a5,5 0 0 1 -5,5h-45.82841873168945a5,5 0 0 1 -5,-5v-12.651999473571777a5,5 0 0 1 5,-5z" style="stroke: rgb(51, 51, 51); fill: none; stroke-width: 1px;"/></g><g id="node-name-node_Concat_18" class="node graph-node" style="" transform="translate(0,716.1079950332642)"><g class="node-item node-item-type node-item-type-tensor" transform="translate(0,0)"><path d="M5,0h65a5,5 0 0 1 5,5v17.651999473571777a0,0 0 0 1 0,0h-75a0,0 0 0 1 0,0v-17.651999473571777a5,5 0 0 1 5,-5z" style="stroke: rgb(0, 0, 0); fill: rgb(89, 66, 59); stroke-width: 0px;"/><text x="6" y="15.880000114440918" style="font-family: -apple-system, BlinkMacSystemFont, &quot;Segoe WPC&quot;, &quot;Segoe UI&quot;, &quot;Ubuntu&quot;, &quot;Droid Sans&quot;, sans-serif, &quot;PingFang SC&quot;; font-size: 11px; text-rendering: geometricprecision; user-select: none; fill: rgb(255, 255, 255);">Concat</text><title>node_Concat_18</title></g><g class="node-argument-list" transform="translate(0,22.651999473571777)"><path d="M0,0h75a0,0 0 0 1 0,0v15.0600004196167a5,5 0 0 1 -5,5h-65a5,5 0 0 1 -5,-5v-15.0600004196167a0,0 0 0 1 0,0z" style="stroke: rgb(0, 0, 0); fill: rgb(255, 255, 255); stroke-width: 0px;"/><g class="node-argument"><rect rx="3" ry="3" x="3" y="3" width="69" height="14.0600004196167" style="fill: transparent;"/><text xml:space="preserve" x="6" y="13.720000267028809" style="font-family: -apple-system, BlinkMacSystemFont, &quot;Segoe WPC&quot;, &quot;Segoe UI&quot;, &quot;Ubuntu&quot;, &quot;Droid Sans&quot;, sans-serif, &quot;PingFang SC&quot;; font-size: 9px; font-weight: normal; text-rendering: geometricprecision; user-select: none;"><tspan style="font-weight: bold;">〈…〉</tspan><tspan/></text></g><line class="node" x1="0" x2="75" y1="0" y2="0" style="stroke: rgb(51, 51, 51); fill: none; stroke-width: 1px;"/></g><path class="node node-border" d="M5,0h65a5,5 0 0 1 5,5v32.71199989318848a5,5 0 0 1 -5,5h-65a5,5 0 0 1 -5,-5v-32.71199989318848a5,5 0 0 1 5,-5z" style="stroke: rgb(51, 51, 51); fill: none; stroke-width: 1px;"/></g><g id="node-name-node_view" class="node graph-node" style="" transform="translate(52.84839725494385,802.1399946212769)"><g class="node-item node-item-type node-item-type-shape" transform="translate(0,0)"><path d="M5,0h44.71741485595703a5,5 0 0 1 5,5v12.651999473571777a5,5 0 0 1 -5,5h-44.71741485595703a5,5 0 0 1 -5,-5v-12.651999473571777a5,5 0 0 1 5,-5z" style="stroke: rgb(0, 0, 0); fill: rgb(108, 79, 71); stroke-width: 0px;"/><text x="6" y="15.880000114440918" style="font-family: -apple-system, BlinkMacSystemFont, &quot;Segoe WPC&quot;, &quot;Segoe UI&quot;, &quot;Ubuntu&quot;, &quot;Droid Sans&quot;, sans-serif, &quot;PingFang SC&quot;; font-size: 11px; text-rendering: geometricprecision; user-select: none; fill: rgb(255, 255, 255);">Reshape</text><title>node_view</title></g><path class="node node-border" d="M5,0h44.71741485595703a5,5 0 0 1 5,5v12.651999473571777a5,5 0 0 1 -5,5h-44.71741485595703a5,5 0 0 1 -5,-5v-12.651999473571777a5,5 0 0 1 5,-5z" style="stroke: rgb(51, 51, 51); fill: none; stroke-width: 1px;"/></g><g id="node-name-node_linear" class="node graph-node" style="" transform="translate(42.70710468292236,868.1119937896729)"><g class="node-item node-item-type node-item-type-layer" transform="translate(0,0)"><path d="M5,0h65a5,5 0 0 1 5,5v17.651999473571777a0,0 0 0 1 0,0h-75a0,0 0 0 1 0,0v-17.651999473571777a5,5 0 0 1 5,-5z" style="stroke: rgb(0, 0, 0); fill: rgb(51, 85, 136); stroke-width: 0px;"/><text x="6" y="15.880000114440918" style="font-family: -apple-system, BlinkMacSystemFont, &quot;Segoe WPC&quot;, &quot;Segoe UI&quot;, &quot;Ubuntu&quot;, &quot;Droid Sans&quot;, sans-serif, &quot;PingFang SC&quot;; font-size: 11px; text-rendering: geometricprecision; user-select: none; fill: rgb(255, 255, 255);">Gemm</text><title>node_linear</title></g><g class="node-argument-list" transform="translate(0,22.651999473571777)"><path d="M0,0h75a0,0 0 0 1 0,0v29.1200008392334a5,5 0 0 1 -5,5h-65a5,5 0 0 1 -5,-5v-29.1200008392334a0,0 0 0 1 0,0z" style="stroke: rgb(0, 0, 0); fill: rgb(255, 255, 255); stroke-width: 0px;"/><g class="node-argument"><rect rx="3" ry="3" x="3" y="3" width="69" height="14.0600004196167" style="fill: transparent;"/><text xml:space="preserve" x="6" y="13.720000267028809" style="font-family: -apple-system, BlinkMacSystemFont, &quot;Segoe WPC&quot;, &quot;Segoe UI&quot;, &quot;Ubuntu&quot;, &quot;Droid Sans&quot;, sans-serif, &quot;PingFang SC&quot;; font-size: 9px; font-weight: normal; text-rendering: geometricprecision; user-select: none;"><title>float32[512,675]</title><tspan style="font-weight: bold;">B</tspan><tspan>〈512×675〉</tspan></text></g><g class="node-argument"><rect rx="3" ry="3" x="3" y="17.0600004196167" width="69" height="14.0600004196167" style="fill: transparent;"/><text xml:space="preserve" x="6" y="27.780000686645508" style="font-family: -apple-system, BlinkMacSystemFont, &quot;Segoe WPC&quot;, &quot;Segoe UI&quot;, &quot;Ubuntu&quot;, &quot;Droid Sans&quot;, sans-serif, &quot;PingFang SC&quot;; font-size: 9px; font-weight: normal; text-rendering: geometricprecision; user-select: none;"><title>float32[512]</title><tspan style="font-weight: bold;">C</tspan><tspan>〈512〉</tspan></text></g><line class="node" x1="0" x2="75" y1="0" y2="0" style="stroke: rgb(51, 51, 51); fill: none; stroke-width: 1px;"/></g><path class="node node-border" d="M5,0h65a5,5 0 0 1 5,5v46.772000312805176a5,5 0 0 1 -5,5h-65a5,5 0 0 1 -5,-5v-46.772000312805176a5,5 0 0 1 5,-5z" style="stroke: rgb(51, 51, 51); fill: none; stroke-width: 1px;"/></g><g id="node-name-node_relu_3" class="node graph-node" style="" transform="translate(62.75802135467529,968.2039937973022)"><g class="node-item node-item-type node-item-type-activation" transform="translate(0,0)"><path d="M5,0h24.89816665649414a5,5 0 0 1 5,5v12.651999473571777a5,5 0 0 1 -5,5h-24.89816665649414a5,5 0 0 1 -5,-5v-12.651999473571777a5,5 0 0 1 5,-5z" style="stroke: rgb(0, 0, 0); fill: rgb(112, 41, 33); stroke-width: 0px;"/><text x="6" y="15.880000114440918" style="font-family: -apple-system, BlinkMacSystemFont, &quot;Segoe WPC&quot;, &quot;Segoe UI&quot;, &quot;Ubuntu&quot;, &quot;Droid Sans&quot;, sans-serif, &quot;PingFang SC&quot;; font-size: 11px; text-rendering: geometricprecision; user-select: none; fill: rgb(255, 255, 255);">Relu</text><title>node_relu_3</title></g><path class="node node-border" d="M5,0h24.89816665649414a5,5 0 0 1 5,5v12.651999473571777a5,5 0 0 1 -5,5h-24.89816665649414a5,5 0 0 1 -5,-5v-12.651999473571777a5,5 0 0 1 5,-5z" style="stroke: rgb(51, 51, 51); fill: none; stroke-width: 1px;"/></g><g id="node-name-node_linear_1" class="node graph-node" style="" transform="translate(42.70710468292236,1034.1759929656982)"><g class="node-item node-item-type node-item-type-layer" transform="translate(0,0)"><path d="M5,0h65a5,5 0 0 1 5,5v17.651999473571777a0,0 0 0 1 0,0h-75a0,0 0 0 1 0,0v-17.651999473571777a5,5 0 0 1 5,-5z" style="stroke: rgb(0, 0, 0); fill: rgb(51, 85, 136); stroke-width: 0px;"/><text x="6" y="15.880000114440918" style="font-family: -apple-system, BlinkMacSystemFont, &quot;Segoe WPC&quot;, &quot;Segoe UI&quot;, &quot;Ubuntu&quot;, &quot;Droid Sans&quot;, sans-serif, &quot;PingFang SC&quot;; font-size: 11px; text-rendering: geometricprecision; user-select: none; fill: rgb(255, 255, 255);">Gemm</text><title>node_linear_1</title></g><g class="node-argument-list" transform="translate(0,22.651999473571777)"><path d="M0,0h75a0,0 0 0 1 0,0v29.1200008392334a5,5 0 0 1 -5,5h-65a5,5 0 0 1 -5,-5v-29.1200008392334a0,0 0 0 1 0,0z" style="stroke: rgb(0, 0, 0); fill: rgb(255, 255, 255); stroke-width: 0px;"/><g class="node-argument"><rect rx="3" ry="3" x="3" y="3" width="69" height="14.0600004196167" style="fill: transparent;"/><text xml:space="preserve" x="6" y="13.720000267028809" style="font-family: -apple-system, BlinkMacSystemFont, &quot;Segoe WPC&quot;, &quot;Segoe UI&quot;, &quot;Ubuntu&quot;, &quot;Droid Sans&quot;, sans-serif, &quot;PingFang SC&quot;; font-size: 9px; font-weight: normal; text-rendering: geometricprecision; user-select: none;"><title>float32[24,512]</title><tspan style="font-weight: bold;">B</tspan><tspan>〈24×512〉</tspan></text></g><g class="node-argument"><rect rx="3" ry="3" x="3" y="17.0600004196167" width="69" height="14.0600004196167" style="fill: transparent;"/><text xml:space="preserve" x="6" y="27.780000686645508" style="font-family: -apple-system, BlinkMacSystemFont, &quot;Segoe WPC&quot;, &quot;Segoe UI&quot;, &quot;Ubuntu&quot;, &quot;Droid Sans&quot;, sans-serif, &quot;PingFang SC&quot;; font-size: 9px; font-weight: normal; text-rendering: geometricprecision; user-select: none;"><title>float32[24]</title><tspan style="font-weight: bold;">C</tspan><tspan>〈24〉</tspan></text></g><line class="node" x1="0" x2="75" y1="0" y2="0" style="stroke: rgb(51, 51, 51); fill: none; stroke-width: 1px;"/></g><path class="node node-border" d="M5,0h65a5,5 0 0 1 5,5v46.772000312805176a5,5 0 0 1 -5,5h-65a5,5 0 0 1 -5,-5v-46.772000312805176a5,5 0 0 1 5,-5z" style="stroke: rgb(51, 51, 51); fill: none; stroke-width: 1px;"/></g><g class="node" style="" transform="translate(56.7987699508667,1134.2679929733276)"><g class="node-item graph-item-output" transform="translate(0,0)"><path d="M5,0h36.81666946411133a5,5 0 0 1 5,5v12.651999473571777a5,5 0 0 1 -5,5h-36.81666946411133a5,5 0 0 1 -5,-5v-12.651999473571777a5,5 0 0 1 5,-5z" style="stroke: rgb(0, 0, 0); fill: rgb(238, 238, 238); stroke-width: 0px;"/><text x="6" y="15.880000114440918" style="font-family: -apple-system, BlinkMacSystemFont, &quot;Segoe WPC&quot;, &quot;Segoe UI&quot;, &quot;Ubuntu&quot;, &quot;Droid Sans&quot;, sans-serif, &quot;PingFang SC&quot;; font-size: 11px; text-rendering: geometricprecision; user-select: none;">output</text><title>float32[1,24]</title></g><path class="node node-border" d="M5,0h36.81666946411133a5,5 0 0 1 5,5v12.651999473571777a5,5 0 0 1 -5,5h-36.81666946411133a5,5 0 0 1 -5,-5v-12.651999473571777a5,5 0 0 1 5,-5z" style="stroke: rgb(51, 51, 51); fill: none; stroke-width: 1px;"/></g></g></g></svg>